<svg width="41" height="41" viewBox="0 0 41 41" fill="none" xmlns="http://www.w3.org/2000/svg">
<circle cx="20.5" cy="20.5" r="20.5" fill="black"/>
<path d="M13.899 27.1733C13.2404 27.1733 12.6279 27.0867 12.0617 26.9133C11.507 26.74 10.9986 26.48 10.5364 26.1333C10.0857 25.7751 9.68127 25.336 9.32305 24.816L10.6057 23.3427C11.1719 24.1516 11.715 24.712 12.235 25.024C12.755 25.336 13.3733 25.492 14.0897 25.492C14.5288 25.492 14.9275 25.4227 15.2857 25.284C15.6439 25.1453 15.927 24.9547 16.135 24.712C16.343 24.4693 16.447 24.192 16.447 23.88C16.447 23.672 16.4124 23.4756 16.343 23.2907C16.2737 23.1058 16.1639 22.9382 16.0137 22.788C15.875 22.6378 15.6902 22.4991 15.459 22.372C15.2395 22.2449 14.9795 22.1351 14.679 22.0427C14.3786 21.9387 14.0319 21.852 13.639 21.7827C13.015 21.6556 12.4719 21.488 12.0097 21.28C11.5475 21.072 11.1604 20.812 10.8484 20.5C10.5364 20.188 10.3053 19.8356 10.155 19.4427C10.0048 19.0382 9.92972 18.5876 9.92972 18.0907C9.92972 17.6053 10.0337 17.1547 10.2417 16.7387C10.4613 16.3227 10.7559 15.9644 11.1257 15.664C11.507 15.352 11.9519 15.1151 12.4604 14.9533C12.9688 14.78 13.5177 14.6933 14.107 14.6933C14.731 14.6933 15.303 14.7742 15.823 14.936C16.343 15.0978 16.8053 15.3404 17.2097 15.664C17.6142 15.976 17.9493 16.3631 18.215 16.8253L16.8977 18.1253C16.6666 17.744 16.4066 17.4262 16.1177 17.172C15.8288 16.9062 15.511 16.7098 15.1644 16.5827C14.8177 16.444 14.4479 16.3747 14.055 16.3747C13.6044 16.3747 13.2115 16.444 12.8764 16.5827C12.5413 16.7213 12.2755 16.9178 12.079 17.172C11.8942 17.4147 11.8017 17.7036 11.8017 18.0387C11.8017 18.2813 11.8479 18.5067 11.9404 18.7147C12.0328 18.9111 12.1715 19.0902 12.3564 19.252C12.5528 19.4022 12.8128 19.5409 13.1364 19.668C13.4599 19.7836 13.847 19.8876 14.2977 19.98C14.9333 20.1187 15.4995 20.2978 15.9964 20.5173C16.4933 20.7253 16.915 20.9738 17.2617 21.2627C17.6084 21.5516 17.8684 21.8751 18.0417 22.2333C18.2266 22.5916 18.319 22.9787 18.319 23.3947C18.319 24.1689 18.1399 24.8391 17.7817 25.4053C17.4235 25.9716 16.915 26.4107 16.2564 26.7227C15.5977 27.0231 14.8119 27.1733 13.899 27.1733ZM26.3968 27.1733C25.5186 27.1733 24.6981 27.0173 23.9355 26.7053C23.1728 26.3818 22.5026 25.9369 21.9248 25.3707C21.347 24.8044 20.8963 24.1458 20.5728 23.3947C20.2608 22.632 20.1048 21.8116 20.1048 20.9333C20.1048 20.0667 20.2608 19.2578 20.5728 18.5067C20.8963 17.7556 21.3412 17.1027 21.9075 16.548C22.4852 15.9818 23.1555 15.5427 23.9181 15.2307C24.6808 14.9187 25.5012 14.7627 26.3795 14.7627C26.9919 14.7627 27.587 14.8493 28.1648 15.0227C28.7541 15.196 29.2857 15.4387 29.7595 15.7507C30.2332 16.0627 30.6203 16.4209 30.9208 16.8253L29.7075 18.0907C29.3608 17.7556 29.0026 17.4782 28.6328 17.2587C28.2746 17.0391 27.9048 16.8716 27.5235 16.756C27.1421 16.6404 26.7608 16.5827 26.3795 16.5827C25.7555 16.5827 25.1777 16.6924 24.6461 16.912C24.1261 17.1316 23.6639 17.4378 23.2595 17.8307C22.8666 18.2236 22.5603 18.6858 22.3408 19.2173C22.1212 19.7373 22.0115 20.3093 22.0115 20.9333C22.0115 21.5342 22.127 22.1062 22.3581 22.6493C22.5892 23.1809 22.907 23.6489 23.3115 24.0533C23.7275 24.4578 24.2012 24.7756 24.7328 25.0067C25.2759 25.2378 25.8479 25.3533 26.4488 25.3533C26.8995 25.3533 27.327 25.2898 27.7315 25.1627C28.1359 25.024 28.4941 24.8333 28.8061 24.5907C29.1181 24.348 29.3608 24.0707 29.5341 23.7587C29.7075 23.4351 29.7941 23.0942 29.7941 22.736V22.3893L30.0541 22.632H26.3448V20.7773H31.7181C31.7412 20.9044 31.7586 21.0316 31.7701 21.1587C31.7817 21.2742 31.7875 21.3898 31.7875 21.5053C31.799 21.6093 31.8048 21.7133 31.8048 21.8173C31.8048 22.6147 31.6661 23.3427 31.3888 24.0013C31.1115 24.6484 30.7243 25.2089 30.2275 25.6827C29.7421 26.1564 29.1701 26.5262 28.5115 26.792C27.8643 27.0462 27.1595 27.1733 26.3968 27.1733Z" fill="white"/>
</svg>
